<?xml version="1.0" encoding="utf-8"?>
<svg version="1.1" xmlns="http://www.w3.org/2000/svg" style="display: block;" viewBox="0 0 500 500" width="500px" height="500px" preserveAspectRatio="none" xmlns:bx="https://boxy-svg.com">
  <defs>
    <linearGradient id="Gradient1" gradientUnits="userSpaceOnUse" x1="362.011" y1="1128.88" x2="331.653" y2="1120.31">
      <stop class="stop0" offset="0" stop-opacity="1" stop-color="rgb(25,159,118)"/>
      <stop class="stop1" offset="1" stop-opacity="1" stop-color="rgb(15,148,133)"/>
    </linearGradient>
    <linearGradient id="Gradient4" gradientUnits="userSpaceOnUse" x1="320.909" y1="925.02" x2="253.936" y2="924.955">
      <stop class="stop0" offset="0" stop-opacity="1" stop-color="rgb(14,134,182)"/>
      <stop class="stop1" offset="1" stop-opacity="1" stop-color="rgb(6,119,222)"/>
    </linearGradient>
    <linearGradient id="Gradient5" gradientUnits="userSpaceOnUse" x1="590.484" y1="1015.24" x2="317.261" y2="1030.6">
      <stop class="stop0" offset="0" stop-opacity="1" stop-color="rgb(69,179,67)"/>
      <stop class="stop1" offset="1" stop-opacity="1" stop-color="rgb(0,138,174)"/>
    </linearGradient>
    <bx:grid x="5.601" y="766.806" width="582.812" height="489.228"/>
  </defs>
  <g transform="matrix(1, 0, 0, 1, -173.755203, -774.007019)" style="transform-origin: 159.242px 795.185px;">
    <path fill="url(#Gradient5)" d="M 375.508 1022.29 C 372.542 1022.9 369.39 1022.8 366.366 1022.85 C 350.518 1023.08 334.643 1022.84 318.79 1022.89 C 306.978 1022.92 293.854 1024.1 282.259 1022 C 275.322 1020.75 267.359 1018.2 262.326 1013.01 C 251.47 1001.82 252.217 987.306 252.16 972.858 L 252.14 899.49 C 252.146 885.599 250.321 868.677 253.601 855.201 C 255.147 848.855 258.988 842.388 263.698 837.883 C 278.923 823.318 322.193 828.067 342.627 828.251 C 363.088 828.144 402.906 825.374 421.459 830.28 C 427.259 831.813 432.218 834.624 436.391 838.952 C 441.207 844.045 444.526 850.368 445.982 857.225 C 448.408 868.223 447.219 880.831 447.178 892.074 L 446.922 965.957 C 446.882 977.544 445.757 990.222 447.186 1001.66 C 447.719 1005.93 448.777 1010.26 450.91 1014.03 C 455.865 1022.78 465.922 1025.79 475.387 1026.2 C 498.325 1027.2 547.03 1022.92 566.377 1027.17 C 573.734 1028.78 580.759 1032.37 585.898 1037.95 C 590.522 1042.96 593.349 1049.24 594.44 1055.95 C 597.349 1073.84 594.926 1099.31 594.911 1117.9 C 594.893 1140.15 596.494 1163.25 594.959 1185.36 C 594.271 1195.27 589.973 1203.79 582.509 1210.44 C 577.358 1215.03 571.108 1217.9 564.342 1219.12 C 547.57 1222.15 514.73 1219.74 496.509 1219.71 C 476.856 1219.67 456.369 1221.31 436.812 1219.82 C 426.295 1219.01 416.242 1215.72 409.187 1207.54 C 404.549 1202.15 401.979 1195.68 400.712 1188.75 C 395.501 1160.25 405.836 1051.84 396.817 1035.71 C 392.409 1027.82 383.689 1024.62 375.508 1022.29 z"/>
    <path fill="url(#Gradient4)" d="M 375.508 1022.29 C 372.542 1022.9 369.39 1022.8 366.366 1022.85 C 350.518 1023.08 334.643 1022.84 318.79 1022.89 C 306.978 1022.92 293.854 1024.1 282.259 1022 C 275.322 1020.75 267.359 1018.2 262.326 1013.01 C 251.47 1001.82 252.217 987.306 252.16 972.858 L 252.14 899.49 C 252.146 885.599 250.321 868.677 253.601 855.201 C 255.147 848.855 258.988 842.388 263.698 837.883 C 278.923 823.318 322.193 828.067 342.627 828.251 C 342.278 828.363 341.932 828.482 341.581 828.587 C 336.079 830.234 326.548 828.865 322.375 831.435 C 313.844 858.552 324.753 889.843 314.983 916.911 C 314.516 918.206 314.693 918.995 314.943 920.304 C 315.369 923.194 315.881 926.101 316.139 929.009 L 316.815 930.761 C 315.774 933.064 314.651 934.872 313.194 936.912 C 315.163 942.584 319.352 948.845 320.354 954.598 C 322.109 964.674 316.518 1016.27 322.609 1020.41 C 331.786 1021.03 370.161 1018.34 375.508 1022.29 z"/>
    <path fill="rgb(255,255,255)" d="M 316.139 929.009 C 313.187 933.854 310.739 936.91 305.11 938.661 C 302.733 939.401 300.058 939.433 297.892 938.056 C 294.673 936.011 292.912 932.243 292.472 928.559 C 291.992 924.541 292.954 920.231 295.541 917.055 C 297.209 915.008 299.51 913.691 302.186 913.579 C 307.383 913.361 311.52 916.867 314.943 920.304 C 315.369 923.194 315.881 926.101 316.139 929.009 z"/>
    <path fill="rgb(255,255,255)" d="M 446.198 1131.98 L 553.866 1131.92 L 553.867 1144.04 C 518.019 1144.07 482.099 1143.65 446.264 1144.56 L 446.198 1131.98 z"/>
    <path fill="rgb(255,255,255)" d="M 446.41 1101.97 L 553.607 1101.88 L 553.65 1113.9 C 517.864 1113.21 481.928 1113.74 446.134 1113.98 L 446.41 1101.97 z"/>
    <path fill="rgb(255,255,255)" d="M 344.824 914.571 C 351.232 912.119 358.409 915.364 360.801 921.793 C 363.194 928.223 359.884 935.37 353.432 937.704 C 347.064 940.007 340.029 936.749 337.667 930.402 C 335.306 924.055 338.499 916.991 344.824 914.571 z"/>
    <path fill="rgb(255,255,255)" d="M 390.803 914.46 C 397.273 912.317 404.252 915.838 406.372 922.315 C 408.493 928.792 404.946 935.759 398.461 937.855 C 392.01 939.941 385.087 936.416 382.977 929.973 C 380.868 923.529 384.367 916.593 390.803 914.46 z"/>
    <path fill="rgb(13,155,124)" d="M 484.024 958.117 L 515.83 958.169 L 515.728 988.421 C 505.13 988.817 494.558 988.769 483.955 988.704 L 484.024 958.117 z"/>
    <path fill="rgb(13,155,124)" d="M 483.852 908.006 L 515.489 908.024 L 515.964 937.884 C 505.387 938.316 494.719 938.078 484.13 938.119 L 483.852 908.006 z"/>
    <path fill="rgb(13,155,124)" d="M 332.059 1060.17 L 362.873 1060.06 L 362.669 1090.05 C 352.417 1090.28 342.135 1090.12 331.88 1090.11 L 332.059 1060.17 z"/>
    <path fill="rgb(11,134,188)" d="M 278.164 1060.2 L 309.075 1060.13 L 309.018 1090.12 L 278.46 1090.23 C 278.135 1080.24 278.238 1070.2 278.164 1060.2 z"/>
    <path fill="rgb(79,179,73)" d="M 538.107 958.353 L 568.163 958.153 C 568.199 968.354 568.156 978.556 568.033 988.757 L 537.959 988.719 L 538.107 958.353 z"/>
    <path fill="rgb(79,179,73)" d="M 537.855 908.052 L 568.304 908.143 L 568.26 938.052 L 538.054 938.112 L 537.855 908.052 z"/>
    <path fill="rgb(11,134,188)" d="M 278.174 1110.47 C 288.458 1110.34 298.743 1110.27 309.029 1110.28 L 308.932 1140.05 L 278.047 1139.87 L 278.174 1110.47 z"/>
    <path fill="url(#Gradient1)" d="M 332.065 1110.19 C 342.266 1110.57 352.571 1110.33 362.783 1110.37 C 362.703 1120.23 362.74 1130.09 362.895 1139.94 L 332.027 1139.97 L 332.065 1110.19 z"/>
  </g>
  <g transform="matrix(1, 0, 0, 1, 158, 0)">
    <g>
      <g>
        <g/>
      </g>
    </g>
    <g/>
  </g>
</svg>